<?xml version="1.0" encoding="UTF-8"?>
<!-- Created with Inkscape (http://www.inkscape.org/) -->
<svg width="26.953mm" height="17.306mm" version="1.1" viewBox="0 0 26.953 17.306" xmlns="http://www.w3.org/2000/svg" xmlnsCc="http://creativecommons.org/ns#" xmlnsDc="http://purl.org/dc/elements/1.1/" xmlnsRdf="http://www.w3.org/1999/02/22-rdf-syntax-ns#" xmlnsXlink="http://www.w3.org/1999/xlink">
 <metadata>
  <rdfRDF>
   <ccWork rdfAbout="">
    <dcFormat>image/svg+xml</dcFormat>
    <dcType rdfResource="http://purl.org/dc/dcmitype/StillImage"/>
    <dcTitle/>
   </ccWork>
  </rdfRDF>
 </metadata>
 <g transform="translate(-50.103 -25.125)">
  <path id="c" d="m51.213 35.995s-1.0069-1.1412-0.97638-1.9573c0.03048-0.8161 0.31708-2.7299 2.9548-2.5739s4.011 5.1256 6.8112 4.8957 2.6786-5.1851 2.6388-7.1286c-0.47421-4.8289-2.9648-5.6008-4.2326-0.39911" fill="none" stroke="#fff" stroke-linecap="square" stroke-width=".265"/>
  <path id="b" d="m54.467 29.245c-0.01683 0.09634-0.53176 0.22731-0.48451 1.314 0.04279 0.98407 1.4166 2.2002 1.4166 2.2002" fill="none" stroke="#fff" stroke-width=".26458px"/>
  <path id="a" d="m58.261 42.298s2.784 0.08303 4.4544-4.1265" fill="none" stroke="#fff" stroke-width=".26458px"/>
  <use transform="matrix(-1 0 0 1 127.16 -3.4617e-8)" width="100%" height="100%" xlinkHref="#c"/>
  <use transform="matrix(-1 0 0 1 127.15 -.074348)" width="100%" height="100%" xlinkHref="#a"/>
  <use transform="matrix(-1 0 0 1 126.99 .16467)" width="100%" height="100%" xlinkHref="#b"/>
  <circle cx="63.61" cy="35.878" r=".93544" fill="#fff" style="paint-order:normal"/>
 </g>
</svg>
